<svg width="35" height="35" viewBox="0 0 35 35" fill="none" xmlns="http://www.w3.org/2000/svg">
<path d="M23.5521 5.90515C21.7027 3.99227 19.2402 2.93542 16.6244 2.93542C14.0086 2.93542 11.5461 3.99227 9.69667 5.90515C5.8752 9.85775 5.8752 16.2939 9.69667 20.2465C11.5461 22.1594 14.0086 23.2162 16.6244 23.2162C19.2402 23.2162 21.7027 22.1594 23.5521 20.2465C27.3736 16.2939 27.3736 9.85775 23.5521 5.90515ZM22.7142 19.3799C21.0896 21.0603 18.9234 21.9903 16.6244 21.9903C14.3254 21.9903 12.1592 21.0603 10.5345 19.3799C7.17287 15.9029 7.17287 10.2488 10.5345 6.77177C12.1592 5.09138 14.3254 4.16136 16.6244 4.16136C18.9234 4.16136 21.0896 5.09138 22.7142 6.77177C26.0759 10.2488 26.0759 15.9029 22.7142 19.3799Z" fill="#F6C315"/>
<path d="M21.7233 7.7968C20.3643 6.39119 18.5558 5.60913 16.6348 5.60913C14.7139 5.60913 12.9053 6.38063 11.5361 7.7968C11.3011 8.03987 11.3011 8.42033 11.5361 8.66341C11.7711 8.90648 12.139 8.90648 12.374 8.66341C13.5082 7.49031 15.0204 6.83507 16.6348 6.83507C18.239 6.83507 19.7513 7.47974 20.8957 8.66341C21.0081 8.77966 21.1613 8.84307 21.3146 8.84307C21.4679 8.84307 21.6211 8.77966 21.7335 8.66341C21.9583 8.4309 21.9583 8.03987 21.7233 7.7968Z" fill="#F6C315"/>
<path d="M12.9971 30.1703H0.592636C0.265664 30.1703 0 30.4451 0 30.7833V34.3871C0 34.7253 0.265664 35.0001 0.592636 35.0001H3.16753C3.49451 35.0001 3.76017 34.7253 3.76017 34.3871C3.76017 34.0489 3.49451 33.7741 3.16753 33.7741H1.18527V31.3962H12.4147V33.7741H6.99923C6.67226 33.7741 6.40659 34.0489 6.40659 34.3871C6.40659 34.7253 6.67226 35.0001 6.99923 35.0001H13.0073C13.3343 35.0001 13.6 34.7253 13.6 34.3871V30.7833C13.5897 30.4451 13.3241 30.1703 12.9971 30.1703Z" fill="#F6C315"/>
<path d="M34.8224 27.8346L29.7646 22.6032C29.5296 22.3602 29.1618 22.3602 28.9267 22.6032L28.6406 22.8991L26.8116 21.0074C29.785 16.8857 30.1938 11.2422 27.7006 6.67661C27.5371 6.38069 27.1795 6.27501 26.8934 6.4441C26.6073 6.61319 26.5051 6.98309 26.6686 7.27901C29.0391 11.6226 28.518 17.0337 25.4527 20.8066C25.4425 20.8172 25.4322 20.8277 25.422 20.8489C25.3811 20.8911 25.3403 20.944 25.2994 20.9968C25.279 21.018 25.2585 21.0391 25.2483 21.0602C25.2074 21.1025 25.1768 21.1448 25.1359 21.1871C25.1155 21.2188 25.0848 21.2399 25.0644 21.2716C25.0337 21.3139 24.9929 21.3456 24.9622 21.3879C24.9316 21.4196 24.9111 21.4407 24.8805 21.4724C24.8498 21.5041 24.8192 21.5464 24.7783 21.5781C24.6352 21.726 24.4922 21.8634 24.3491 22.0008C24.3389 22.0114 24.3389 22.0114 24.3287 22.022C22.1421 24.0511 19.3833 25.0657 16.6142 25.0657C13.6613 25.0657 10.6981 23.9031 8.45016 21.5781C6.27376 19.327 5.06806 16.3362 5.06806 13.1445C5.06806 9.96339 6.26354 6.96195 8.45016 4.71088C12.946 0.0607679 20.2722 0.0607679 24.7681 4.71088C25.0031 4.95395 25.3709 4.95395 25.6059 4.71088C25.8409 4.4678 25.8409 4.08734 25.6059 3.84427C20.6401 -1.28142 12.568 -1.28142 7.6123 3.84427C5.2111 6.32785 3.88278 9.6252 3.88278 13.1445C3.88278 14.8143 4.1791 16.4418 4.76152 17.9531H0.592635C0.265664 17.9637 0 18.2385 0 18.5767V22.1805C0 22.5187 0.265664 22.7935 0.592635 22.7935H7.95971C8.40929 23.2268 8.88953 23.6284 9.39021 23.9771H0.592635C0.265664 23.9771 0 24.2519 0 24.5795V28.1834C0 28.5216 0.265664 28.7963 0.592635 28.7963H21.8356C22.1625 28.7963 22.4282 28.5216 22.4282 28.1834V24.8543C23.0617 24.5161 23.6645 24.1251 24.247 23.6812L26.076 25.573L25.7899 25.8689C25.6775 25.9851 25.6162 26.1437 25.6162 26.3022C25.6162 26.4607 25.6775 26.6192 25.7899 26.7355L30.8477 31.9669C30.9601 32.0831 31.1031 32.1465 31.2666 32.1465C31.4199 32.1465 31.5732 32.0831 31.6856 31.9669L34.8327 28.7118C35.0575 28.4687 35.0575 28.0777 34.8224 27.8346ZM1.18527 21.557V19.1791H5.30307C5.722 20.014 6.23289 20.8172 6.83574 21.557H1.18527ZM21.2429 27.5704H1.18527V25.1925H11.209C11.2805 25.1925 11.352 25.1819 11.4236 25.1502C13.0686 25.9111 14.8465 26.2916 16.6142 26.2916C18.1878 26.2916 19.7511 25.9957 21.2327 25.4039L21.2429 27.5704ZM25.1666 22.8991C25.2279 22.8463 25.2892 22.7829 25.3403 22.7301C25.3505 22.7195 25.3709 22.6983 25.3811 22.6878C25.4629 22.6138 25.5344 22.5293 25.6162 22.4553C25.6468 22.4236 25.6775 22.3919 25.7081 22.3602C25.749 22.3179 25.7796 22.2862 25.8205 22.2439C25.8614 22.2016 25.892 22.1699 25.9227 22.1277C25.9533 22.0959 25.984 22.0642 26.0147 22.022C26.0351 22.0008 26.0453 21.9797 26.0657 21.9691L27.813 23.7763L26.9138 24.7063L25.1666 22.8991ZM31.2564 30.6669L27.0364 26.3022L27.3225 26.0063L29.0596 24.2096L29.3457 23.9137L33.5656 28.2785L31.2564 30.6669Z" fill="#F6C315"/>
</svg>
